<svg width="1093" height="1093" viewBox="0 0 1093 1093" fill="none" xmlns="http://www.w3.org/2000/svg">
<g clip-path="url(#clip0_9_8)">
<path class="svg" d="M777.679 601.491C761.956 590.302 742.192 586.22 723.449 590.298C721.134 590.803 718.854 591.427 716.622 592.161C717.339 569.654 707.513 547.535 688.824 534.228C673.101 523.039 653.336 518.957 634.594 523.035C632.278 523.54 629.998 524.164 627.767 524.898C628.391 505.251 620.981 485.901 606.655 472.448C651.856 460.48 691.825 431.049 716.102 389C765.405 303.602 736.04 194.013 650.642 144.708C565.244 95.4038 455.656 124.769 406.352 210.167C370.178 272.821 375.643 351.649 419.45 408.646L381.047 475.16L320.139 481.066C284.051 484.566 254.921 510.784 247.654 546.302L216.516 698.457C203.451 762.313 232.596 827.111 289.041 859.7L466.119 961.936C538.315 1003.62 630.962 978.794 672.644 906.598L795.863 693.177C813.93 661.884 805.942 621.613 777.679 601.491ZM428.797 223.125C470.955 150.105 564.662 124.996 637.683 167.155C710.703 209.313 735.812 303.02 693.654 376.041C664.554 426.443 609.103 455.669 551.899 452.237L568.841 422.892C609.922 420.307 647.506 397.224 668.216 361.354C702.276 302.36 681.99 226.653 622.996 192.593C564.002 158.533 488.295 178.818 454.235 237.812C433.527 273.679 432.329 317.772 450.628 354.642L433.686 383.987C402.115 336.165 399.697 273.527 428.797 223.125ZM600.958 244.083C585.235 232.891 565.472 228.809 546.73 232.89C527.973 236.972 511.712 248.843 502.119 265.458L467.241 325.869C460.304 300.888 463.443 273.701 476.681 250.772C503.596 204.154 563.419 188.124 610.037 215.039C656.655 241.954 672.684 301.777 645.769 348.395C632.53 371.327 610.555 387.637 585.452 394.12L619.142 335.768C637.211 304.475 629.224 264.202 600.958 244.083ZM479.079 939.488L302 837.252C255.229 810.249 231.081 756.56 241.907 703.652L273.045 551.499C278.015 527.195 297.947 509.258 322.639 506.865L365.122 502.745L308.597 600.649C305.019 606.846 307.14 614.772 313.34 618.351C319.539 621.93 327.464 619.807 331.043 613.608L524.565 278.418C530.516 268.111 540.604 260.746 552.24 258.215C564.034 255.649 576.006 258.131 585.927 265.198C603.428 277.655 608.159 302.96 596.699 322.808L459.658 560.171C456.08 566.368 458.202 574.294 464.402 577.873C470.601 581.452 478.526 579.329 482.105 573.13L523.573 501.304C529.524 490.997 539.612 483.633 551.248 481.102C563.04 478.536 575.006 481.004 584.935 488.084C602.434 500.542 607.165 525.847 595.705 545.696L589.983 555.608L548.514 627.433C544.936 633.631 547.057 641.556 553.257 645.136C559.458 648.716 567.381 646.592 570.96 640.393L612.429 568.567C618.38 558.26 628.468 550.896 640.103 548.365C651.896 545.799 663.862 548.267 673.791 555.347C691.289 567.804 696.02 593.11 684.561 612.958L678.84 622.868L637.371 694.693C633.793 700.891 635.914 708.817 642.115 712.396C648.315 715.976 656.238 713.852 659.817 707.653L701.286 635.827C707.237 625.52 717.324 618.155 728.96 615.625C740.753 613.059 752.719 615.527 762.648 622.607C780.146 635.064 784.877 660.37 773.418 680.218L650.201 893.636L650.205 893.639C615.664 953.457 538.9 974.026 479.079 939.488Z" fill="black"/>
</g>
<defs>
<clipPath id="clip0_9_8">
<rect class="rect" width="800" height="800" fill="white" transform="translate(400) rotate(30)"/>
</clipPath>
</defs>
</svg>
