<svg width="42" height="42" viewBox="0 0 42 42" fill="none" xmlns="http://www.w3.org/2000/svg">
<rect width="42" height="42" rx="6" fill="#FFF42B"/>
<g clip-path="url(#clip0_26_485)">
<path d="M17.8706 16L12.1822 26.7867H7L11.4421 18.3644C12.1306 17.058 13.8484 16 15.2795 16H17.8706ZM30.579 18.6967C30.579 17.2068 31.739 16 33.1701 16C34.6012 16 35.7612 17.2068 35.7612 18.6967C35.7612 20.1865 34.6012 21.3933 33.1701 21.3933C31.739 21.3933 30.579 20.1865 30.579 18.6967ZM18.8423 16H24.0245L18.3361 26.7867H13.1539L18.8423 16ZM24.9626 16H30.1448L25.7039 24.4223C25.0153 25.7286 23.2963 26.7867 21.8652 26.7867H19.2741L24.9626 16Z" fill="black"/>
</g>
<defs>
<clipPath id="clip0_26_485">
<rect width="28.79" height="10.7963" fill="white" transform="translate(7 16)"/>
</clipPath>
</defs>
</svg>
