<svg width="96" height="96" viewBox="0 0 96 96" fill="none" xmlns="http://www.w3.org/2000/svg">
<g clip-path="url(#clip0_26_496)">
<path d="M0 96V0H96V96H0Z" fill="#F7DF1E"/>
<path d="M62.768 71.8587C64.6133 74.856 66.6187 77.728 70.8667 77.728C74.4347 77.728 76.3067 75.9547 76.3067 73.5014C76.3067 70.5654 74.3707 69.5227 70.4453 67.8134L68.2933 66.896C62.0827 64.2614 57.952 60.96 57.952 53.9867C57.952 47.56 62.872 42.6694 70.56 42.6694C76.0347 42.6694 79.968 44.5654 82.8053 49.5307L76.1013 53.816C74.6267 51.1814 73.032 50.144 70.56 50.144C68.0373 50.144 66.44 51.736 66.44 53.816C66.44 56.3867 68.04 57.4267 71.7333 59.0187L73.8853 59.936C81.2053 63.0534 85.3333 66.2374 85.3333 73.3947C85.3333 81.1067 79.2427 85.3334 71.0667 85.3334C63.0693 85.3334 58.528 81.32 56 76.352L62.768 71.8587ZM31.872 72.0774C33.2213 74.4934 35.272 76.352 38.2213 76.352C41.0427 76.352 42.6667 75.2374 42.6667 70.904V42.6667H51.5547V72.2694C51.5547 81.248 46.3467 85.3334 38.7413 85.3334C31.8693 85.3334 26.9093 80.6774 24.888 76.352L31.872 72.0774Z" fill="#000001"/>
</g>
<defs>
<clipPath id="clip0_26_496">
<rect width="96" height="96" rx="6" fill="white"/>
</clipPath>
</defs>
</svg>
