<svg width="96" height="96" viewBox="0 0 96 96" fill="none" xmlns="http://www.w3.org/2000/svg">
<g clip-path="url(#clip0_26_504)">
<path d="M86.625 0H9.375C4.19733 0 0 4.19733 0 9.375V86.625C0 91.8027 4.19733 96 9.375 96H86.625C91.8027 96 96 91.8027 96 86.625V9.375C96 4.19733 91.8027 0 86.625 0Z" fill="#3178C6"/>
<path d="M86.625 0H9.375C4.19733 0 0 4.19733 0 9.375V86.625C0 91.8027 4.19733 96 9.375 96H86.625C91.8027 96 96 91.8027 96 86.625V9.375C96 4.19733 91.8027 0 86.625 0Z" fill="#3178C6"/>
<path fill-rule="evenodd" clip-rule="evenodd" d="M59.4261 76.392V85.7784C60.9519 86.5607 62.7566 87.1472 64.8401 87.5383C66.9236 87.9294 69.1194 88.125 71.4279 88.125C73.6778 88.125 75.8149 87.9099 77.8397 87.4796C79.8645 87.0495 81.6399 86.3406 83.1658 85.353C84.6917 84.3656 85.8997 83.0749 86.7898 81.4811C87.6799 79.8874 88.125 77.9173 88.125 75.5708C88.125 73.8694 87.8707 72.3784 87.3621 71.0976C86.8534 69.8168 86.1199 68.6777 85.1612 67.6804C84.2027 66.6831 83.0533 65.7883 81.7132 64.9963C80.3732 64.2043 78.8619 63.4564 77.1795 62.7525C75.9471 62.244 74.8417 61.7503 73.8636 61.2712C72.8854 60.792 72.054 60.3032 71.3692 59.8046C70.6845 59.3059 70.1563 58.7779 69.7847 58.2206C69.4131 57.6632 69.2271 57.0326 69.2271 56.3286C69.2271 55.6834 69.3934 55.1016 69.726 54.5833C70.0586 54.0651 70.5281 53.6203 71.1345 53.2487C71.7411 52.8773 72.4843 52.5887 73.3646 52.3834C74.2451 52.1781 75.2231 52.0755 76.2992 52.0755C77.0816 52.0755 77.9081 52.1342 78.7787 52.2514C79.6493 52.3688 80.5247 52.5497 81.4052 52.794C82.2855 53.0385 83.1413 53.3466 83.9728 53.718C84.8042 54.0896 85.572 54.5198 86.2763 55.0088V46.2383C84.8483 45.6908 83.2881 45.285 81.5959 45.021C79.9037 44.757 77.9619 44.625 75.771 44.625C73.5407 44.625 71.4279 44.8646 69.4326 45.3437C67.4372 45.8227 65.6814 46.5707 64.1651 47.5875C62.649 48.6045 61.4509 49.8999 60.5706 51.4742C59.6902 53.0482 59.25 54.9304 59.25 57.1206C59.25 59.9169 60.057 62.3027 61.671 64.2778C63.2848 66.2528 65.7351 67.9247 69.0217 69.2936C70.3129 69.8216 71.5161 70.3397 72.6311 70.8482C73.7462 71.3567 74.7098 71.8847 75.5214 72.4322C76.3333 72.9797 76.974 73.5761 77.4437 74.2215C77.9132 74.8667 78.1479 75.6 78.1479 76.4214C78.1479 77.0276 78.0011 77.5897 77.7077 78.108C77.4143 78.6262 76.9691 79.0759 76.3725 79.4573C75.7759 79.8386 75.0324 80.1367 74.1424 80.3518C73.2521 80.5671 72.2106 80.6745 71.0171 80.6745C68.9826 80.6745 66.9677 80.3177 64.9721 79.6039C62.9768 78.8902 61.128 77.8196 59.4261 76.392ZM43.6462 53.2654H55.6875V45.5625H22.125V53.2654H34.1074V87.5625H43.6462V53.2654Z" fill="white"/>
</g>
<defs>
<clipPath id="clip0_26_504">
<rect width="96" height="96" fill="white"/>
</clipPath>
</defs>
</svg>
